<svg width="16" height="16" viewBox="0 0 16 16" fill="none" xmlns="http://www.w3.org/2000/svg">
<path d="M11.6573 1.05266C11.6593 0.79538 11.7567 0.549329 11.9284 0.367963C12.1 0.186597 12.332 0.0845708 12.574 0.0840522H15.0852C15.327 0.0845752 15.5588 0.186666 15.7302 0.368087C15.9015 0.549509 15.9985 0.795563 16 1.05266V8.66742C15.9985 8.9247 15.9016 9.17096 15.7303 9.3527C15.559 9.53444 15.3272 9.63698 15.0852 9.63802H12.574C12.3317 9.6375 12.0994 9.5352 11.9277 9.3534C11.756 9.17161 11.6588 8.92504 11.6573 8.66742V1.05266ZM0.967224 7.01839C0.784515 6.86242 0.646794 6.65493 0.569822 6.41964C0.492849 6.18436 0.479734 5.93079 0.531978 5.68795C0.584221 5.44511 0.699711 5.22281 0.865234 5.04649C1.03076 4.87017 1.23963 4.74695 1.46794 4.69093C1.28453 4.53565 1.14606 4.32851 1.06841 4.09331C0.990772 3.85811 0.977117 3.60439 1.02902 3.36131C1.08092 3.11823 1.19627 2.89565 1.36182 2.71914C1.52737 2.54263 1.7364 2.41936 1.96489 2.36348C1.76398 2.19134 1.6181 1.95732 1.54728 1.69353C1.47646 1.42974 1.48417 1.14911 1.56934 0.890162C1.65452 0.631214 1.81299 0.406638 2.02301 0.247258C2.23302 0.0878789 2.48429 0.00150767 2.74232 0L9.82387 0.0840522C10.0652 0.0851058 10.2964 0.187494 10.467 0.368915C10.6377 0.550336 10.734 0.796092 10.735 1.05266V8.66742C10.735 9.86817 7.12264 12.0856 6.92876 13.2703C6.80828 14.0348 6.96829 16 6.47133 16C5.62802 16 4.54565 15.6558 4.54565 13.6645C4.54565 11.9074 5.62803 9.62802 5.62803 9.62802H1.2477C0.941201 9.62793 0.645448 9.50794 0.416819 9.29092C0.188191 9.07389 0.0426745 8.77501 0.00801034 8.45125C-0.0266539 8.12749 0.0519581 7.80148 0.22886 7.53538C0.405762 7.26928 0.668583 7.0817 0.967224 7.00838V7.01839Z" fill="#A3ABBE"/>
</svg>
