<svg width="20" height="20" viewBox="0 0 20 20" fill="none" xmlns="http://www.w3.org/2000/svg">
<g clip-path="url(#clip0_205_396)">
<path d="M10 20C15.5228 20 20 15.5228 20 10C20 4.47715 15.5228 0 10 0C4.47715 0 0 4.47715 0 10C0 15.5228 4.47715 20 10 20Z" fill="#2194FF"/>
<path d="M12.5567 5.42941C12.558 5.26025 12.6261 5.09848 12.7461 4.97923C12.8661 4.85999 13.0283 4.79291 13.1975 4.79257H14.9527C15.1218 4.79291 15.2838 4.86003 15.4036 4.97932C15.5234 5.0986 15.5911 5.26037 15.5922 5.42941V10.436C15.5912 10.6051 15.5234 10.7671 15.4037 10.8866C15.2839 11.006 15.1219 11.0735 14.9527 11.0741H13.1975C13.0281 11.0738 12.8657 11.0065 12.7457 10.887C12.6256 10.7675 12.5577 10.6054 12.5567 10.436V5.42941ZM5.08429 9.35178C4.95658 9.24924 4.86031 9.11281 4.80651 8.95811C4.7527 8.80342 4.74354 8.6367 4.78006 8.47704C4.81657 8.31737 4.8973 8.17122 5.013 8.05529C5.1287 7.93936 5.2747 7.85835 5.43429 7.82152C5.30609 7.71942 5.20929 7.58323 5.15502 7.42859C5.10075 7.27395 5.09121 7.10713 5.12749 6.94731C5.16377 6.78749 5.2444 6.64115 5.36011 6.5251C5.47583 6.40904 5.62194 6.32799 5.78166 6.29125C5.64122 6.17808 5.53925 6.02421 5.48975 5.85077C5.44025 5.67733 5.44563 5.49283 5.50517 5.32257C5.56471 5.15232 5.67548 5.00466 5.82228 4.89987C5.96909 4.79508 6.14472 4.7383 6.32508 4.7373L11.2751 4.79257C11.4438 4.79326 11.6054 4.86058 11.7246 4.97986C11.8439 5.09914 11.9112 5.26072 11.9119 5.42941V10.436C11.9119 11.2255 9.38692 12.6834 9.2514 13.4623C9.16719 13.9649 9.27903 15.257 8.93166 15.257C8.34219 15.257 7.58561 15.0307 7.58561 13.7215C7.58561 12.5663 8.34219 11.0676 8.34219 11.0676H5.28034C5.0661 11.0675 4.85937 10.9886 4.69956 10.8459C4.53975 10.7032 4.43803 10.5067 4.4138 10.2939C4.38957 10.081 4.44452 9.86665 4.56818 9.6917C4.69183 9.51674 4.87554 9.3934 5.08429 9.3452V9.35178Z" fill="white"/>
</g>
<defs>
<clipPath id="clip0_205_396">
<rect width="20" height="20" fill="white"/>
</clipPath>
</defs>
</svg>
