<svg width="16" height="16" viewBox="0 0 16 16" fill="none" xmlns="http://www.w3.org/2000/svg">
<g clip-path="url(#clip0_205_1022)">
<path d="M14.5216 3.38215C14.5214 3.377 14.5208 3.37184 14.5199 3.36671C14.4999 3.33814 14.4754 3.31356 14.4548 3.28556C14.3054 3.08207 14.1472 2.88621 13.9804 2.69795C13.9346 2.64651 13.8889 2.59563 13.842 2.54533C13.6702 2.36129 13.4899 2.1858 13.3013 2.01891C13.2664 1.98803 13.2339 1.95604 13.199 1.92573C12.7341 1.52748 12.2251 1.18379 11.682 0.901455C11.6602 0.890034 11.6374 0.880321 11.6151 0.868867C11.3732 0.745953 11.1252 0.635463 10.872 0.537902C10.8149 0.517338 10.7628 0.49788 10.7085 0.480732C10.4834 0.399581 10.2547 0.328512 10.0226 0.267523C9.95405 0.249237 9.88546 0.230381 9.81573 0.214372C9.58708 0.161221 9.35847 0.120629 9.12466 0.087472C9.05379 0.07719 8.98406 0.0634584 8.91259 0.0548846C8.31044 -0.0182949 7.70166 -0.0182949 7.09948 0.0548846C7.02804 0.0634584 6.95831 0.07719 6.88741 0.087472C6.65364 0.120629 6.42272 0.161221 6.19634 0.214372C6.12661 0.230381 6.05802 0.249237 5.98943 0.267523C5.75583 0.328478 5.52721 0.399548 5.30352 0.480732C5.24635 0.500157 5.19434 0.519616 5.14005 0.537902C4.88689 0.635463 4.63885 0.745919 4.39697 0.868867C4.37466 0.880288 4.35182 0.890001 4.33009 0.901455C3.78514 1.18349 3.27443 1.52715 2.80792 1.92573C2.77306 1.95601 2.74047 1.98803 2.7056 2.01891C2.51507 2.18657 2.33482 2.36206 2.16488 2.54533C2.11802 2.59563 2.07227 2.64651 2.02656 2.69795C1.85927 2.88581 1.70112 3.08167 1.55215 3.28553C1.53158 3.31353 1.507 3.33811 1.48697 3.36668C1.48436 3.37167 1.48205 3.37683 1.48011 3.38212C-0.491416 6.14509 -0.491416 9.85496 1.48011 12.6179C1.48205 12.6232 1.48433 12.6283 1.48697 12.6333C1.50697 12.6619 1.53155 12.6865 1.55215 12.7145C1.70115 12.918 1.85927 13.1138 2.02656 13.3021C2.07227 13.3535 2.11802 13.4044 2.16488 13.4547C2.33713 13.6388 2.51735 13.8143 2.7056 13.9811C2.74047 14.012 2.77306 14.044 2.80792 14.0743C3.27279 14.4726 3.78179 14.8163 4.32493 15.0986C4.34666 15.11 4.36951 15.1197 4.39181 15.1312C4.63369 15.2541 4.88169 15.3646 5.13489 15.4621C5.19206 15.4827 5.24407 15.5022 5.29836 15.5193C5.52356 15.6005 5.75221 15.6715 5.98427 15.7325C6.05287 15.7508 6.12146 15.7697 6.19119 15.7857C6.41984 15.8388 6.64845 15.8794 6.88226 15.9126C6.95312 15.9229 7.02285 15.9366 7.09432 15.9452C7.69647 16.0183 8.30525 16.0183 8.90743 15.9452C8.97887 15.9366 9.0486 15.9229 9.1195 15.9126C9.35327 15.8794 9.5842 15.8388 9.81057 15.7857C9.8803 15.7697 9.94889 15.7508 10.0175 15.7325C10.2515 15.6716 10.4801 15.6005 10.7034 15.5193C10.7606 15.4999 10.8126 15.4804 10.8669 15.4621C11.12 15.3646 11.3681 15.2541 11.6099 15.1312C11.6323 15.1198 11.6551 15.11 11.6768 15.0986C12.22 14.8162 12.729 14.4726 13.1938 14.0743C13.2287 14.044 13.2613 14.012 13.2962 13.9811C13.4867 13.8139 13.6669 13.6384 13.8369 13.4547C13.8837 13.4044 13.9295 13.3535 13.9752 13.3021C14.1425 13.1138 14.3006 12.918 14.4496 12.7145C14.4702 12.6865 14.4948 12.6619 14.5148 12.6333C14.5174 12.6283 14.5197 12.6232 14.5216 12.6179C16.4932 9.855 16.4932 6.14512 14.5216 3.38215ZM13.8695 4.46363C14.4161 5.36392 14.7462 6.37886 14.8337 7.42849H11.4099C11.368 6.7474 11.2608 6.07194 11.0898 5.41135C12.057 5.23023 12.9931 4.91105 13.8695 4.46363ZM9.4579 1.2987C9.48992 1.30614 9.52077 1.31642 9.55278 1.32385C9.75742 1.37188 9.96034 1.42674 10.1587 1.49533C10.189 1.50561 10.2187 1.51764 10.2484 1.52849C10.4451 1.59708 10.6388 1.6731 10.8286 1.75713C10.8618 1.77257 10.8944 1.78972 10.9275 1.80516C11.1093 1.89167 11.2869 1.98521 11.4602 2.08582L11.5745 2.15498C11.7392 2.25559 11.8992 2.36323 12.0547 2.47794C12.0947 2.50708 12.1347 2.53511 12.1741 2.5671C12.3266 2.68141 12.4725 2.80392 12.612 2.93464C12.6486 2.96779 12.6863 3.00038 12.7223 3.03468C12.8686 3.17357 13.0081 3.32046 13.143 3.47251C13.1601 3.49251 13.1784 3.51079 13.1956 3.52968C12.4216 3.89853 11.6017 4.16191 10.7577 4.31275C10.3668 3.23794 9.85029 2.21302 9.21904 1.25931C9.29841 1.27358 9.3796 1.28159 9.4579 1.2987ZM5.73798 7.42846C5.78306 6.81 5.88835 6.1974 6.05236 5.59937C6.69999 5.6763 7.35161 5.71445 8.00379 5.71368C8.65658 5.71348 9.3088 5.67436 9.95693 5.59649C10.1206 6.19549 10.2254 6.80906 10.2696 7.42846H5.73798ZM10.2696 8.57166C10.2245 9.19012 10.1192 9.80272 9.95519 10.4007C9.30756 10.3238 8.65594 10.2857 8.00376 10.2864C7.35101 10.2857 6.69882 10.3238 6.05062 10.4007C5.88708 9.80268 5.78239 9.19009 5.73794 8.57166H10.2696ZM8.00376 1.51365C8.65423 2.43558 9.18923 3.4338 9.59679 4.48594C9.06766 4.54214 8.53591 4.57037 8.00376 4.57054C7.47221 4.5699 6.94103 4.5415 6.41243 4.48537C6.8205 3.43393 7.35486 2.43605 8.00376 1.51365ZM2.86516 3.47191C2.99949 3.31986 3.13952 3.17296 3.28585 3.03407C3.32185 2.99978 3.3596 2.96719 3.39617 2.93403C3.53717 2.80563 3.68313 2.68311 3.83401 2.5665C3.87346 2.53619 3.91345 2.50933 3.95347 2.47734C4.10894 2.36303 4.269 2.25536 4.43361 2.15438L4.54792 2.08522C4.7213 1.98387 4.89888 1.8903 5.08064 1.80456C5.11379 1.78912 5.14638 1.77197 5.17954 1.75653C5.3693 1.67079 5.56308 1.59477 5.75971 1.52788C5.78942 1.51703 5.81688 1.50501 5.84944 1.49473C6.04778 1.42841 6.24956 1.37355 6.45534 1.32325C6.48735 1.31581 6.5182 1.30553 6.55079 1.29867C6.62909 1.28152 6.71028 1.27351 6.78972 1.25921C6.1582 2.21309 5.64155 3.23821 5.2504 4.31322C4.40645 4.16238 3.5865 3.899 2.81258 3.53015C2.82972 3.51019 2.84801 3.49191 2.86516 3.47191ZM2.13809 4.46363C3.01426 4.91102 3.95019 5.23019 4.91716 5.41135C4.74639 6.07197 4.63938 6.74743 4.59765 7.42849H1.17383C1.26137 6.37886 1.59147 5.36392 2.13809 4.46363ZM2.13809 11.5365C1.59143 10.6362 1.26134 9.62129 1.17383 8.57166H4.59765C4.63958 9.25275 4.74676 9.92821 4.91773 10.5888C3.95059 10.7699 3.01446 11.0891 2.13809 11.5365ZM6.54965 14.7014C6.51763 14.694 6.48678 14.6837 6.45477 14.6763C6.25013 14.6282 6.04721 14.5734 5.84887 14.5048C5.81856 14.4945 5.78885 14.4825 5.75911 14.4716C5.56248 14.403 5.36873 14.327 5.17893 14.243C5.14578 14.2275 5.11319 14.2104 5.08003 14.195C4.89827 14.1084 4.7207 14.0149 4.54731 13.9143L4.43301 13.8451C4.26839 13.7445 4.10834 13.6369 3.95287 13.5222C3.91285 13.493 3.87286 13.465 3.8334 13.433C3.68098 13.3187 3.53503 13.1962 3.39557 13.0655C3.35899 13.0323 3.32125 12.9997 3.28524 12.9654C3.13892 12.8265 2.99946 12.6797 2.86455 12.5276C2.84741 12.5076 2.82912 12.4893 2.81197 12.4704C3.58593 12.1016 4.40584 11.8382 5.2498 11.6874C5.64078 12.7622 6.15726 13.7871 6.78851 14.7408C6.7091 14.7266 6.62795 14.7186 6.54965 14.7014ZM8.00376 14.4865C7.35328 13.5646 6.81829 12.5664 6.41073 11.5142C7.4693 11.4003 8.53705 11.4003 9.59562 11.5142L9.59505 11.5148C9.18705 12.5662 8.65269 13.5641 8.00376 14.4865ZM13.1424 12.5282C13.0081 12.6803 12.868 12.8272 12.7217 12.966C12.6857 13.0003 12.648 13.0329 12.6114 13.0661C12.4704 13.1949 12.3244 13.3174 12.1735 13.4336C12.1341 13.4639 12.0941 13.4936 12.0541 13.5228C11.8986 13.6371 11.7386 13.7448 11.5739 13.8457L11.4596 13.9149C11.2866 14.0159 11.109 14.1094 10.9269 14.1956C10.8938 14.211 10.8612 14.2281 10.828 14.2436C10.6383 14.3293 10.4445 14.4053 10.2478 14.4722C10.2181 14.4831 10.1907 14.4951 10.1581 14.5054C9.95977 14.5717 9.75799 14.6266 9.55221 14.6769C9.5202 14.6843 9.48935 14.6946 9.45676 14.7014C9.37846 14.7186 9.29728 14.7266 9.21783 14.7409C9.84909 13.7872 10.3656 12.7623 10.7565 11.6875C11.6005 11.8383 12.4204 12.1017 13.1944 12.4705C13.1778 12.4899 13.1595 12.5082 13.1424 12.5282ZM13.8695 11.5365C12.9933 11.0891 12.0574 10.77 11.0904 10.5888C11.2612 9.92818 11.3682 9.25272 11.4099 8.57166H14.8337C14.7462 9.62126 14.4161 10.6362 13.8695 11.5365Z" fill="#1F212E"/>
</g>
<defs>
<clipPath id="clip0_205_1022">
<rect width="16" height="16" fill="white"/>
</clipPath>
</defs>
</svg>
