<svg width="16" height="16" viewBox="0 0 16 16" fill="none" xmlns="http://www.w3.org/2000/svg">
<path d="M16 8C16 12.4183 12.4183 16 8 16C3.58172 16 0 12.4183 0 8C0 3.58172 3.58172 0 8 0C12.4183 0 16 3.58172 16 8Z" fill="#6C7896"/>
<circle cx="8.22587" cy="11.7151" r="1.14286" fill="white"/>
<path d="M9.06291 9.39181C9.06291 9.72917 8.78943 10.0027 8.45208 10.0027H8.29518C7.87117 10.0027 7.52744 9.65892 7.52744 9.23491V9.15536C7.52744 8.80068 7.56632 8.53795 7.64406 8.36718C7.73476 8.18327 7.92913 7.94025 8.22715 7.63812L9.21841 6.63319C9.42573 6.40988 9.52939 6.12088 9.52939 5.7662C9.52939 5.42466 9.41925 5.14222 9.19897 4.91891C8.99165 4.69559 8.71306 4.58393 8.36321 4.58393C8.01335 4.58393 7.72181 4.69559 7.48857 4.91891C7.43669 4.96566 7.38993 5.01599 7.34831 5.0699C7.08985 5.40461 6.77253 5.7662 6.34964 5.7662C5.86856 5.7662 5.48096 5.33939 5.65559 4.89113C5.81573 4.48005 6.05744 4.13463 6.3807 3.85487C6.92492 3.38196 7.60519 3.14551 8.42152 3.14551C9.23784 3.14551 9.89868 3.37539 10.404 3.83516C10.9094 4.2818 11.162 4.8992 11.162 5.68738C11.162 6.22597 11.0065 6.68574 10.6956 7.06669C10.5012 7.32942 10.255 7.59871 9.95699 7.87457C9.64601 8.16357 9.43221 8.38032 9.31559 8.52482C9.14714 8.76127 9.06291 9.05027 9.06291 9.39181Z" fill="white"/>
</svg>
