<svg width="20" height="20" viewBox="0 0 20 20" fill="none" xmlns="http://www.w3.org/2000/svg">
<path d="M10 20C15.5228 20 20 15.5228 20 10C20 4.47715 15.5228 0 10 0C4.47715 0 0 4.47715 0 10C0 15.5228 4.47715 20 10 20Z" fill="#FF2147"/>
<path d="M11.2141 15.2343C10.4563 15.2343 9.69848 15.239 8.94106 15.2296C8.81739 15.2213 8.69721 15.1851 8.58949 15.1238C8.04574 14.7968 7.61293 14.3492 7.6559 13.6523C7.69223 12.4156 7.66996 11.1765 7.66371 9.93861C7.66371 9.66244 7.76371 9.45541 7.96605 9.27065C9.37504 8.0394 10.3418 7.18744 10.5079 5.20736C10.7243 4.27846 11.9887 4.91674 12.0375 5.63705C12.4043 7.2101 11.1649 8.66205 11.8512 8.59799C12.6887 8.62742 13.5262 8.65593 14.3637 8.68354C14.9829 8.70346 15.484 9.23901 15.4676 9.939C15.3672 11.2956 15.0852 12.6417 14.9493 13.9964C14.6555 15.7492 12.4746 15.1218 11.2141 15.2343Z" fill="white"/>
<path d="M6.75234 9.19824H4.90742C4.69967 9.19824 4.53125 9.36666 4.53125 9.57441V14.7932C4.53125 15.0009 4.69967 15.1693 4.90742 15.1693H6.75234C6.9601 15.1693 7.12852 15.0009 7.12852 14.7932V9.57441C7.12852 9.36666 6.9601 9.19824 6.75234 9.19824Z" fill="white"/>
</svg>
