<svg width="16" height="16" viewBox="0 0 16 16" fill="none" xmlns="http://www.w3.org/2000/svg">
<path d="M9.77672 15.968C8.66807 15.968 7.55942 15.9751 6.45134 15.9608C6.27042 15.9481 6.09461 15.893 5.93701 15.7997C5.14153 15.302 4.50834 14.6206 4.5712 13.5598C4.62435 11.6773 4.59178 9.79122 4.58263 7.90693C4.58263 7.48655 4.72893 7.17141 5.02495 6.89016C7.08624 5.01597 8.50063 3.71915 8.7435 0.70511C9.06009 -0.708854 10.9099 0.262726 10.9814 1.35917C11.518 3.75363 9.70471 5.96377 10.7088 5.86626C11.934 5.91105 13.1592 5.95446 14.3845 5.99647C15.2903 6.0268 16.0234 6.842 15.9994 7.90753C15.8526 9.97258 15.44 12.0216 15.2411 14.0837C14.8114 16.7516 11.6208 15.7967 9.77672 15.968Z" fill="#A3ABBE"/>
<path d="M3.24937 6.7793H0.550325C0.246389 6.7793 0 7.03566 0 7.3519V15.2958C0 15.612 0.246389 15.8684 0.550325 15.8684H3.24937C3.55331 15.8684 3.7997 15.612 3.7997 15.2958V7.3519C3.7997 7.03566 3.55331 6.7793 3.24937 6.7793Z" fill="#A3ABBE"/>
</svg>
