<svg width="66" height="28" viewBox="0 0 66 28" fill="none" xmlns="http://www.w3.org/2000/svg">
<path d="M56.5576 27.8587C55.8671 27.8587 55.2707 27.6409 54.7685 27.2052C54.2873 26.7507 54.0466 26.2108 54.0466 25.5858V20.159H62.5213V17.6303H54.0466V15.0732H65.66V22.6309H57.1854V25.3016H65.9739V27.8587H56.5576Z" fill="#1F212E"/>
<path d="M48.8882 28.0002L44.7136 20.4994L40.5391 28.0002L37.7142 26.6364L44.7136 14.6465L51.7131 26.6364L48.8882 28.0002Z" fill="#1F212E"/>
<path d="M66 6.79051C66 7.58605 65.8326 8.33424 65.4978 9.03507C65.163 9.71697 64.7131 10.3231 64.1481 10.8535C63.5831 11.3649 62.9135 11.7721 62.1393 12.0752C61.386 12.3782 60.5699 12.5298 59.6911 12.5298C58.8332 12.5298 58.0171 12.3782 57.2429 12.0752C56.4896 11.7721 55.82 11.3649 55.2341 10.8535C54.6691 10.3231 54.2192 9.71697 53.8844 9.03507C53.5496 8.33424 53.3822 7.58605 53.3822 6.79051C53.3822 6.10862 53.4973 5.47408 53.7275 4.8869C53.9786 4.28077 54.3134 3.73147 54.7319 3.23899C55.1713 2.74651 55.6735 2.3298 56.2385 1.98885C56.8244 1.64791 57.4521 1.3922 58.1217 1.22172V0H61.2605V1.22172C61.951 1.3922 62.5787 1.64791 63.1437 1.98885C63.7296 2.3298 64.2318 2.74651 64.6503 3.23899C65.0688 3.73147 65.3932 4.28077 65.6233 4.8869C65.8744 5.47408 66 6.10862 66 6.79051ZM62.8612 6.79051C62.8612 5.88132 62.5474 5.1426 61.9196 4.57436C61.3128 3.98718 60.5699 3.69358 59.6911 3.69358C58.8122 3.69358 58.0589 3.98718 57.4312 4.57436C56.8244 5.1426 56.521 5.88132 56.521 6.79051C56.521 7.22617 56.6047 7.63341 56.7721 8.01224C56.9395 8.39106 57.1592 8.72254 57.4312 9.00666C57.7241 9.27184 58.0589 9.48967 58.4356 9.66014C58.8332 9.81167 59.2517 9.88744 59.6911 9.88744C60.1305 9.88744 60.5386 9.81167 60.9152 9.66014C61.3128 9.48967 61.6476 9.27184 61.9196 9.00666C62.2126 8.72254 62.4427 8.39106 62.6101 8.01224C62.7775 7.63341 62.8612 7.22617 62.8612 6.79051Z" fill="#1F212E"/>
<path d="M49.5141 12.6439L45.371 5.34201L41.2278 12.6439L38.4657 11.4222L43.3935 2.84173H39.5643V0.142578H51.1776V2.84173H47.3484L52.2762 11.4222L49.5141 12.6439Z" fill="#1F212E"/>
<path d="M14.1429 14C14.1429 6.26801 7.81088 3.41425e-07 1.22392e-06 0L8.41444e-07 8.75C2.92908 8.75 5.30357 11.1005 5.30357 14C5.30357 16.8995 2.92908 19.25 3.82475e-07 19.25L0 28C7.81088 28 14.1429 21.732 14.1429 14Z" fill="#1F212E"/>
<path d="M14.1429 14C14.1429 6.26801 20.4749 3.37976e-07 28.2858 0L28.2858 8.75C25.3567 8.75 22.9822 11.1005 22.9822 14C22.9822 16.8995 25.3567 19.25 28.2858 19.25L28.2858 28C20.4749 28 14.1429 21.732 14.1429 14Z" fill="#1F212E"/>
</svg>
