<svg width="40" height="40" viewBox="0 0 40 40" fill="none" xmlns="http://www.w3.org/2000/svg">
<g clip-path="url(#clip0_273_28797)">
<path fill-rule="evenodd" clip-rule="evenodd" d="M24.5108 39.9998C24.2062 39.9998 23.6204 39.8357 23.3392 38.7344L20.3398 27.6038C20.2695 27.3226 20.4569 27.0414 20.7381 27.0179C22.1441 26.8305 23.4329 26.1275 24.3234 25.0261C24.4405 24.909 24.5811 24.8621 24.7217 24.8621C25.8934 24.9793 27.065 24.7215 28.0726 24.1357C28.3304 23.9717 28.6819 24.1123 28.7522 24.4169L31.9859 36.4145C32.4312 38.0548 31.283 38.7344 29.9004 37.7971L27.2291 35.9927L25.8231 38.875C25.4716 39.6014 25.0029 39.9998 24.5108 39.9998Z" fill="#FA3C48"/>
<path fill-rule="evenodd" clip-rule="evenodd" d="M15.4892 39.9998C14.9737 39.9998 14.505 39.6014 14.1769 38.875L12.771 35.9927L10.0996 37.7971C8.69363 38.7344 7.56885 38.0548 8.01408 36.4145L11.2244 24.4169C11.3181 24.1123 11.6462 23.9717 11.9274 24.1357C12.9116 24.7215 14.1066 24.9793 15.2548 24.8621C15.4189 24.8621 15.5595 24.909 15.6532 25.0261C16.5671 26.1275 17.8559 26.8305 19.2619 27.0179C19.5196 27.0414 19.7071 27.3226 19.6368 27.6038L16.6608 38.7344C16.3562 39.8357 15.7938 39.9998 15.4892 39.9998Z" fill="#FA3C48"/>
<path fill-rule="evenodd" clip-rule="evenodd" d="M19.9883 28.0023C18.1137 28.0023 16.3562 27.2056 15.0908 25.8231C11.2009 26.0105 7.96721 22.8002 8.1781 18.8869C5.27242 16.2859 5.27242 11.7165 8.1781 9.11541C7.96721 5.20211 11.2009 1.96837 15.0908 2.17926C17.7153 -0.726421 22.2847 -0.726421 24.8858 2.17926C28.7991 1.96837 32.0094 5.20211 31.8219 9.11541C34.7276 11.7165 34.7276 16.2859 31.8219 18.8869C32.0094 22.8002 28.7991 26.0105 24.8858 25.8231C23.6438 27.2056 21.8629 28.0023 19.9883 28.0023Z" fill="#FFCB29"/>
<path fill-rule="evenodd" clip-rule="evenodd" d="M19.9883 25.8938C18.6526 25.8938 17.4107 25.308 16.5437 24.2769L16.0047 23.6442L15.1611 23.7145C12.3726 23.9489 10.0293 21.6056 10.2871 18.8405L10.3574 17.9969L9.70126 17.4345C7.56886 15.6536 7.56886 12.3496 9.70126 10.5687L10.3574 10.0063L10.2871 9.16268C10.0293 6.3976 12.3726 4.03087 15.1611 4.28864L16.0047 4.35893L16.5437 3.70281C18.348 1.57042 21.652 1.57042 23.4329 3.70281L23.9953 4.35893L24.8389 4.28864C27.604 4.05431 29.9473 6.3976 29.713 9.16268L29.6192 10.0063L30.2754 10.5687C32.4312 12.3496 32.4312 15.6536 30.2754 17.4345L29.6192 17.9969L29.713 18.8405C29.9473 21.629 27.604 23.9489 24.8389 23.7145L23.9953 23.6442L23.4329 24.2769C22.5894 25.308 21.324 25.8938 19.9883 25.8938Z" fill="#FFA725"/>
<path fill-rule="evenodd" clip-rule="evenodd" d="M19.9883 21.3702C15.9344 21.3702 12.6304 18.0661 12.6304 13.9888C12.6304 9.9349 15.9344 6.63086 19.9883 6.63086C24.0656 6.63086 27.3697 9.9349 27.3697 13.9888C27.3697 18.0661 24.0656 21.3702 19.9883 21.3702Z" fill="#FFCC00"/>
<path d="M21.8379 19H19.0967V14.0576C19.0967 13.9665 19.0967 13.8001 19.0967 13.5586C19.0967 13.3125 19.099 13.0413 19.1035 12.7451C19.1126 12.4489 19.124 12.1823 19.1377 11.9453C19.0192 12.0866 18.9076 12.2074 18.8027 12.3076C18.7025 12.4079 18.6045 12.5013 18.5088 12.5879L17.374 13.5244L15.9727 11.8018L19.4043 9.00586H21.8379V19Z" fill="white"/>
</g>
<defs>
<clipPath id="clip0_273_28797">
<rect width="40" height="40" fill="white"/>
</clipPath>
</defs>
</svg>
