<svg width="40" height="40" viewBox="0 0 40 40" fill="none" xmlns="http://www.w3.org/2000/svg">
<g clip-path="url(#clip0_273_29159)">
<path d="M32.8455 39.3174C24.3091 40.2282 15.7 40.2282 7.16364 39.3174C5.50595 39.1424 3.95835 38.4044 2.77885 37.2266C1.59934 36.0487 0.859203 34.5022 0.681823 32.8447C-0.228902 24.3083 -0.228902 15.6993 0.681823 7.16291C0.856876 5.50522 1.59484 3.95762 2.7727 2.77812C3.95055 1.59861 5.49711 0.85847 7.15455 0.68109C15.6909 -0.229634 24.3 -0.229634 32.8364 0.68109C34.494 0.856144 36.0416 1.59411 37.2212 2.77196C38.4007 3.94982 39.1408 5.49638 39.3182 7.15382C40.2289 15.6902 40.2289 24.2992 39.3182 32.8356C39.1431 34.4933 38.4052 36.0409 37.2273 37.2204C36.0495 38.3999 34.5029 39.1401 32.8455 39.3174Z" fill="#171616"/>
<path d="M22.2833 18.1623L31.2178 8H29.1006L21.3427 16.8238L15.1466 8H8L17.3698 21.3432L8 32H10.1173L18.3098 22.6817L24.8534 32H32L22.2827 18.1623H22.2833ZM10.8802 9.55963H14.1323L29.1016 30.5113H25.8495L10.8802 9.55963Z" fill="white"/>
</g>
<defs>
<clipPath id="clip0_273_29159">
<rect width="40" height="40" fill="white"/>
</clipPath>
</defs>
</svg>
