<svg width="40" height="40" viewBox="0 0 40 40" fill="none" xmlns="http://www.w3.org/2000/svg">
<g clip-path="url(#clip0_273_29154)">
<path d="M32.8455 39.3174C24.3091 40.2282 15.7 40.2282 7.16364 39.3174C5.50595 39.1424 3.95835 38.4044 2.77885 37.2266C1.59934 36.0487 0.859203 34.5022 0.681823 32.8447C-0.228902 24.3083 -0.228902 15.6993 0.681823 7.16291C0.856876 5.50522 1.59484 3.95762 2.7727 2.77812C3.95055 1.59861 5.49711 0.85847 7.15455 0.68109C15.6909 -0.229634 24.3 -0.229634 32.8364 0.68109C34.494 0.856144 36.0416 1.59411 37.2212 2.77196C38.4007 3.94982 39.1408 5.49638 39.3182 7.15382C40.2289 15.6902 40.2289 24.2992 39.3182 32.8356C39.1431 34.4933 38.4052 36.0409 37.2273 37.2204C36.0495 38.3999 34.5029 39.1401 32.8455 39.3174Z" fill="#39CD00"/>
<path d="M32.4795 17.6544C32.3341 15.1044 30.9795 12.8066 28.8636 11.1135C26.5909 9.29982 23.4636 8.18164 20 8.18164C13.0955 8.18164 7.5 12.6248 7.5 18.1157C7.5 21.6816 9.86364 24.8112 13.4091 26.5635C14.9589 27.3211 16.6312 27.7967 18.3477 27.968C18.5273 27.988 18.6916 28.0785 18.8045 28.2195C18.9175 28.3606 18.9698 28.5407 18.95 28.7203L18.6909 31.068C18.6788 31.1886 18.6991 31.3102 18.7497 31.4204C18.8003 31.5305 18.8793 31.6252 18.9786 31.6946C19.0779 31.7641 19.194 31.8058 19.3148 31.8155C19.4356 31.8252 19.5568 31.8025 19.6659 31.7498C24.8386 29.2498 27.9341 26.6839 29.7818 24.4589C30.1159 24.0544 31.2136 22.518 31.4364 22.1135C31.9113 21.2668 32.2351 20.344 32.3932 19.3862C32.4433 19.1385 32.479 18.888 32.5 18.6362C32.5109 18.3088 32.504 17.981 32.4795 17.6544ZM16.1159 21.4089H13.5477C13.3779 21.4083 13.2153 21.3406 13.0952 21.2205C12.9751 21.1005 12.9074 20.9378 12.9068 20.768V15.9407C12.9063 15.8562 12.9227 15.7724 12.9551 15.6943C12.9875 15.6163 13.0352 15.5455 13.0955 15.4862C13.1849 15.3965 13.299 15.3354 13.4233 15.3107C13.5476 15.286 13.6764 15.2988 13.7934 15.3476C13.9103 15.3963 14.0101 15.4787 14.0801 15.5843C14.1501 15.69 14.1871 15.814 14.1864 15.9407V20.1294H16.1045C16.2737 20.13 16.4358 20.1974 16.5555 20.3171C16.6751 20.4367 16.7426 20.5988 16.7432 20.768C16.7435 20.8521 16.7272 20.9354 16.6952 21.0131C16.6633 21.0908 16.6163 21.1615 16.5569 21.2211C16.4976 21.2806 16.4271 21.3278 16.3495 21.3601C16.2718 21.3923 16.1886 21.4089 16.1045 21.4089H16.1159ZM18.6364 20.9089C18.6358 21.0413 18.5829 21.1682 18.4893 21.2618C18.3956 21.3554 18.2688 21.4083 18.1364 21.4089H17.85C17.7174 21.4089 17.5902 21.3562 17.4964 21.2625C17.4027 21.1687 17.35 21.0415 17.35 20.9089V15.8021C17.35 15.7364 17.3629 15.6714 17.3881 15.6108C17.4132 15.5501 17.45 15.495 17.4964 15.4485C17.5429 15.4021 17.598 15.3653 17.6587 15.3402C17.7193 15.315 17.7843 15.3021 17.85 15.3021H18.1295C18.262 15.3027 18.3888 15.3556 18.4824 15.4492C18.5761 15.5428 18.6289 15.6697 18.6295 15.8021L18.6364 20.9089ZM24.5795 20.743C24.5796 20.9157 24.5126 21.0818 24.3926 21.206C24.2726 21.3303 24.109 21.403 23.9364 21.4089C23.7746 21.4063 23.6196 21.3431 23.5023 21.2316C23.4795 21.2135 22.6205 20.0953 21.8909 19.1544C21.3455 18.4521 20.8727 17.8385 20.8727 17.8385V20.768C20.8732 20.8922 20.8374 21.0138 20.7698 21.1179C20.7022 21.2221 20.6057 21.3043 20.4921 21.3544C20.3785 21.4046 20.2528 21.4205 20.1302 21.4004C20.0077 21.3802 19.8938 21.3247 19.8023 21.2407C19.7363 21.1809 19.6836 21.108 19.6476 21.0266C19.6116 20.9451 19.593 20.857 19.5932 20.768V15.968C19.5911 15.7993 19.6538 15.6361 19.7684 15.5122C19.883 15.3884 20.0407 15.3131 20.2091 15.3021C20.3044 15.3005 20.3989 15.3201 20.4857 15.3594C20.5726 15.3987 20.6496 15.4567 20.7114 15.5294C20.7386 15.5612 22.0591 17.2794 22.8023 18.2566C23.0977 18.6385 23.3023 18.9066 23.3023 18.9066V15.9521C23.3035 15.7831 23.3711 15.6213 23.4906 15.5018C23.6102 15.3823 23.7719 15.3146 23.9409 15.3135C24.0248 15.3135 24.1078 15.33 24.1853 15.3621C24.2628 15.3942 24.3332 15.4412 24.3925 15.5005C24.4518 15.5598 24.4988 15.6302 24.5309 15.7077C24.563 15.7852 24.5795 15.8682 24.5795 15.9521V20.743ZM28.7273 17.7271C28.8967 17.7271 29.0591 17.7944 29.1789 17.9141C29.2986 18.0339 29.3659 18.1964 29.3659 18.3657C29.3659 18.5351 29.2986 18.6975 29.1789 18.8173C29.0591 18.9371 28.8967 19.0044 28.7273 19.0044H26.8182V20.1407H28.7341C28.8213 20.1355 28.9087 20.1482 28.9908 20.178C29.073 20.2078 29.1481 20.2541 29.2117 20.314C29.2753 20.3739 29.326 20.4462 29.3606 20.5265C29.3953 20.6067 29.4131 20.6931 29.4131 20.7805C29.4131 20.8679 29.3953 20.9543 29.3606 21.0346C29.326 21.1148 29.2753 21.1871 29.2117 21.247C29.1481 21.3069 29.073 21.3532 28.9908 21.383C28.9087 21.4128 28.8213 21.4255 28.7341 21.4203H26.1705C26.0009 21.4197 25.8384 21.3519 25.7187 21.2318C25.599 21.1116 25.5318 20.949 25.5318 20.7794V15.9407C25.5324 15.7715 25.5999 15.6094 25.7195 15.4898C25.8392 15.3702 26.0013 15.3027 26.1705 15.3021H28.7273C28.8145 15.2969 28.9019 15.3096 28.984 15.3394C29.0661 15.3692 29.1413 15.4155 29.2049 15.4754C29.2685 15.5353 29.3192 15.6076 29.3538 15.6878C29.3885 15.768 29.4063 15.8545 29.4063 15.9419C29.4063 16.0292 29.3885 16.1157 29.3538 16.1959C29.3192 16.2761 29.2685 16.3484 29.2049 16.4084C29.1413 16.4683 29.0661 16.5146 28.984 16.5444C28.9019 16.5742 28.8145 16.5868 28.7273 16.5816H26.8182V17.718L28.7273 17.7271Z" fill="white"/>
</g>
<defs>
<clipPath id="clip0_273_29154">
<rect width="40" height="40" fill="white"/>
</clipPath>
</defs>
</svg>
