<svg width="40" height="40" viewBox="0 0 40 40" fill="none" xmlns="http://www.w3.org/2000/svg">
<g clip-path="url(#clip0_273_29165)">
<path d="M32.8455 39.3174C24.3091 40.2282 15.7 40.2282 7.16364 39.3174C5.50595 39.1424 3.95835 38.4044 2.77885 37.2266C1.59934 36.0487 0.859203 34.5022 0.681823 32.8447C-0.228902 24.3083 -0.228902 15.6993 0.681823 7.16291C0.856876 5.50522 1.59484 3.95762 2.7727 2.77812C3.95055 1.59861 5.49711 0.85847 7.15455 0.68109C15.6909 -0.229634 24.3 -0.229634 32.8364 0.68109C34.494 0.856144 36.0416 1.59411 37.2212 2.77196C38.4007 3.94982 39.1408 5.49638 39.3182 7.15382C40.2289 15.6902 40.2289 24.2992 39.3182 32.8356C39.1431 34.4933 38.4052 36.0409 37.2273 37.2204C36.0495 38.3999 34.5029 39.1401 32.8455 39.3174Z" fill="#334C8C"/>
<path d="M24.2274 18.7295L23.8295 22.0705C23.8123 22.2257 23.7383 22.369 23.6217 22.4729C23.505 22.5767 23.3541 22.6336 23.1979 22.6326H19.7243V32.5484C19.7251 32.6668 19.6791 32.7807 19.5963 32.8653C19.5134 32.9499 19.4005 32.9983 19.2821 33H15.7421C15.6833 32.9992 15.6251 32.9868 15.571 32.9635C15.5169 32.9402 15.468 32.9064 15.4269 32.8642C15.3858 32.822 15.3535 32.7721 15.3317 32.7174C15.31 32.6626 15.2992 32.6042 15.3 32.5453L15.319 22.6326H12.6885C12.521 22.6326 12.3603 22.5661 12.2419 22.4476C12.1234 22.3292 12.0569 22.1686 12.0569 22.0011V18.66C12.0569 18.4925 12.1234 18.3319 12.2419 18.2134C12.3603 18.095 12.521 18.0284 12.6885 18.0284H15.3032V14.7884C15.3032 11.04 17.5327 9 20.7979 9H23.4727C23.6402 9 23.8008 9.06654 23.9193 9.18498C24.0377 9.30343 24.1043 9.46407 24.1043 9.63158V12.4453C24.1043 12.6128 24.0377 12.7734 23.9193 12.8919C23.8008 13.0103 23.6402 13.0768 23.4727 13.0768H21.8337C20.059 13.1053 19.7243 13.9547 19.7243 15.2242V18.0189H23.6116C23.7003 18.0205 23.7877 18.0407 23.8681 18.0782C23.9484 18.1157 24.02 18.1698 24.0781 18.2368C24.1362 18.3038 24.1795 18.3823 24.2052 18.4672C24.231 18.5521 24.2385 18.6415 24.2274 18.7295Z" fill="white"/>
</g>
<defs>
<clipPath id="clip0_273_29165">
<rect width="40" height="40" fill="white"/>
</clipPath>
</defs>
</svg>
